<?xml version="1.0" encoding="UTF-8" standalone="no"?>
<svg
   xmlns:dc="http://purl.org/dc/elements/1.1/"
   xmlns:cc="http://creativecommons.org/ns#"
   xmlns:rdf="http://www.w3.org/1999/02/22-rdf-syntax-ns#"
   xmlns:svg="http://www.w3.org/2000/svg"
   xmlns="http://www.w3.org/2000/svg"
   id="svg34"
   version="1.1"
   height="720"
   width="1150">
  <metadata
     id="metadata40">
    <rdf:RDF>
      <cc:Work
         rdf:about="">
        <dc:format>image/svg+xml</dc:format>
        <dc:type
           rdf:resource="http://purl.org/dc/dcmitype/StillImage" />
        <dc:title>soccer_field</dc:title>
      </cc:Work>
    </rdf:RDF>
  </metadata>
  <defs
     id="defs38" />
  <title
     id="title10">soccer_field</title>
  <!--         -->
  <!--                  -->
  <!--      -->
  <!--         -->
  <!--      -->
  <!--         -->
  <!--       -->
  <!--         -->
  <path
     style="fill:none;fill-opacity:1"
     id="svg_2"
     fill="#ffffff"
     stroke-width="5"
     stroke="#000000"
     d="M 575,20 H 50 V 700 H 1100 V 20 H 575 v 680 z" />
  <circle
     id="svg_3"
     fill-opacity="0"
     stroke-width="5"
     stroke="#000000"
     r="91.5"
     cy="360"
     cx="575" />
  <circle
     id="svg_4"
     fill="#000000"
     stroke="#000000"
     r="2"
     cy="360"
     cx="575" />
  <circle
     id="svg_5"
     fill="#000000"
     stroke="#000000"
     r="2"
     cy="360"
     cx="160" />
  <circle
     id="svg_6"
     fill="#000000"
     stroke="#000000"
     r="2"
     cy="360"
     cx="990" />
  <path
     id="svg_7"
     fill-opacity="0"
     stroke-width="5"
     stroke="#000000"
     d="M 50,324.39999 H 40 v 72.20002 h 10 z" />
  <path
     id="svg_8"
     fill-opacity="0"
     stroke-width="5"
     stroke="#000000"
     d="m 1100,324.39999 h 10 v 72.20002 h -10 z" />
  <path
     id="svg_9"
     fill-opacity="0"
     stroke-width="5"
     stroke="#000000"
     d="m 50,269.39999 h 55 V 451.60001 H 50 Z" />
  <path
     id="svg_10"
     fill-opacity="0"
     stroke-width="5"
     stroke="#000000"
     d="m 1100,269.39999 h -55 v 182.20002 h 55 z" />
  <path
     id="svg_11"
     fill-opacity="0"
     stroke-width="5"
     stroke="#000000"
     d="M 50,159.39999 H 215 V 561.59998 H 50 Z" />
  <path
     id="svg_12"
     fill-opacity="0"
     stroke-width="5"
     stroke="#000000"
     d="M 1100,159.39999 H 935 v 402.19999 h 165 z" />
  <path
     style="fill:none"
     id="svg_13"
     fill="#ffffff"
     stroke-width="5"
     stroke="#000000"
     d="m 215,286.875 a 91.5,91.5 0 0 1 0,146.25 z" />
  <path
     style="fill:none"
     id="svg_14"
     fill="#ffffff"
     stroke-width="5"
     stroke="#000000"
     d="m 935,286.875 a 91.5,91.5 0 0 0 0,146.25 z" />
  <path
     id="svg_15"
     fill-opacity="0"
     stroke-width="5"
     stroke="#000000"
     d="M 50,30 A 10,10 0 0 0 60,20 H 50 Z" />
  <path
     id="svg_16"
     fill-opacity="0"
     stroke-width="5"
     stroke="#000000"
     d="M 60,700 A 10,10 0 0 0 50,690 v 10 z" />
  <path
     id="svg_17"
     fill-opacity="0"
     stroke-width="5"
     stroke="#000000"
     d="m 1100,690 a 10,10 0 0 0 -10,10 h 10 z" />
  <path
     id="svg_18"
     fill-opacity="0"
     stroke-width="5"
     stroke="#000000"
     d="m 1090,20 a 10,10 0 0 0 10,10 V 20 Z" />
</svg>
